<svg xmlns="http://www.w3.org/2000/svg" viewBox="0 0 128 128" width="128" height="128">
  <rect width="128" height="128" fill="#000500"/>
  <defs><filter id="g"><feGaussianBlur stdDeviation="2.5" result="b"/><feMerge><feMergeNode in="b"/><feMergeNode in="SourceGraphic"/></feMerge></filter></defs>
  <g filter="url(#g)">
    <path d="M64 28 C44 28 32 42 32 58 L32 90 C32 94 35 96 38 94 L43 91 C48 88 53 90 56 95 L60 101 C62 104 66 104 68 101 L72 95 C75 90 80 88 85 91 L90 94 C93 96 96 94 96 90 L96 58 C96 42 78 28 64 28 Z"
          fill="none" stroke="#00ff41" stroke-width="2.5" stroke-linejoin="round"/>
    <ellipse cx="50" cy="57" rx="8" ry="9" fill="#00ff41"/>
    <ellipse cx="78" cy="57" rx="8" ry="9" fill="#00ff41"/>
    <ellipse cx="53" cy="54" rx="2.5" ry="3" fill="#ccffcc" opacity="0.7"/>
    <ellipse cx="81" cy="54" rx="2.5" ry="3" fill="#ccffcc" opacity="0.7"/>
  </g>
  <text x="64" y="118" text-anchor="middle" font-family="monospace" font-size="7" fill="#00ff41" letter-spacing="3" opacity="0.45">GHOST LINK</text>
</svg>
