<svg xmlns="http://www.w3.org/2000/svg" viewBox="0 0 512 512" width="512" height="512">
  <rect width="512" height="512" fill="#000500"/>
  <defs>
    <filter id="glow-ms">
      <feGaussianBlur stdDeviation="10" result="blur"/>
      <feMerge><feMergeNode in="blur"/><feMergeNode in="SourceGraphic"/></feMerge>
    </filter>
    <radialGradient id="bg-ms" cx="50%" cy="45%" r="35%">
      <stop offset="0%" stop-color="#00ff41" stop-opacity="0.07"/>
      <stop offset="100%" stop-color="#000500" stop-opacity="0"/>
    </radialGradient>
  </defs>
  <rect width="512" height="512" fill="url(#bg-ms)"/>
  <!-- Ghost within safe zone (105px–407px) -->
  <g filter="url(#glow-ms)">
    <path d="M256 120 C200 120 168 158 168 208 L168 360 C168 368 175 372 182 368 L194 360 C204 352 216 356 224 366 L236 382 C244 392 256 392 264 382 L276 366 C284 356 296 352 306 360 L318 368 C325 372 332 368 332 360 L332 208 C332 158 304 120 256 120 Z"
          fill="none" stroke="#00ff41" stroke-width="5.5" stroke-linejoin="round"/>
    <ellipse cx="256" cy="244" rx="60" ry="48" fill="#000500" opacity="0.9"/>
    <ellipse cx="228" cy="240" rx="14" ry="17" fill="#00ff41" opacity="0.95"/>
    <ellipse cx="284" cy="240" rx="14" ry="17" fill="#00ff41" opacity="0.95"/>
    <ellipse cx="233" cy="234" rx="4" ry="5" fill="#ccffcc" opacity="0.75"/>
    <ellipse cx="289" cy="234" rx="4" ry="5" fill="#ccffcc" opacity="0.75"/>
  </g>
</svg>
