<svg xmlns="http://www.w3.org/2000/svg" viewBox="0 0 96 96" width="96" height="96">
  <rect width="96" height="96" fill="#000500"/>
  <defs><filter id="g"><feGaussianBlur stdDeviation="2" result="b"/><feMerge><feMergeNode in="b"/><feMergeNode in="SourceGraphic"/></feMerge></filter></defs>
  <g filter="url(#g)">
    <path d="M48 20 C32 20 23 31 23 44 L23 68 C23 72 25 73 28 72 L32 69 C36 67 40 69 43 73 L46 77 C47 79 49 79 50 77 L53 73 C56 69 60 67 64 69 L68 72 C71 73 73 72 73 68 L73 44 C73 31 60 20 48 20 Z"
          fill="none" stroke="#00ff41" stroke-width="2.2" stroke-linejoin="round"/>
    <ellipse cx="37" cy="43" rx="6" ry="7" fill="#00ff41"/>
    <ellipse cx="59" cy="43" rx="6" ry="7" fill="#00ff41"/>
    <ellipse cx="40" cy="40" rx="2" ry="2.5" fill="#ccffcc" opacity="0.7"/>
    <ellipse cx="62" cy="40" rx="2" ry="2.5" fill="#ccffcc" opacity="0.7"/>
  </g>
</svg>
