<svg xmlns="http://www.w3.org/2000/svg" viewBox="0 0 72 72" width="72" height="72">
  <rect width="72" height="72" fill="#000500"/>
  <defs><filter id="g"><feGaussianBlur stdDeviation="1.5" result="b"/><feMerge><feMergeNode in="b"/><feMergeNode in="SourceGraphic"/></feMerge></filter></defs>
  <g filter="url(#g)">
    <path d="M36 14 C24 14 17 23 17 32 L17 52 C17 55 19 56 21 55 L24 53 C27 51 30 52 32 55 L34 58 C35 60 37 60 38 58 L40 55 C42 52 45 51 48 53 L51 55 C53 56 55 55 55 52 L55 32 C55 23 46 14 36 14 Z"
          fill="none" stroke="#00ff41" stroke-width="2" stroke-linejoin="round"/>
    <ellipse cx="28" cy="33" rx="5" ry="6" fill="#00ff41"/>
    <ellipse cx="44" cy="33" rx="5" ry="6" fill="#00ff41"/>
    <ellipse cx="30" cy="31" rx="1.5" ry="2" fill="#ccffcc" opacity="0.7"/>
    <ellipse cx="46" cy="31" rx="1.5" ry="2" fill="#ccffcc" opacity="0.7"/>
  </g>
</svg>
